<svg width="44" height="37" viewBox="0 0 44 37" fill="none" xmlns="http://www.w3.org/2000/svg">
<path d="M29.2004 7.39998C29.2004 9.30954 28.4418 11.1409 27.0916 12.4911C25.7413 13.8414 23.9099 14.6 22.0004 14.6C20.0908 14.6 18.2595 13.8414 16.9092 12.4911C15.559 11.1409 14.8004 9.30954 14.8004 7.39998C14.8004 5.49042 15.559 3.65907 16.9092 2.30881C18.2595 0.958551 20.0908 0.199982 22.0004 0.199982C23.9099 0.199982 25.7413 0.958551 27.0916 2.30881C28.4418 3.65907 29.2004 5.49042 29.2004 7.39998ZM41.2004 12.2C41.2004 13.473 40.6947 14.6939 39.7945 15.5941C38.8943 16.4943 37.6734 17 36.4004 17C35.1273 17 33.9065 16.4943 33.0063 15.5941C32.1061 14.6939 31.6004 13.473 31.6004 12.2C31.6004 10.9269 32.1061 9.70604 33.0063 8.80587C33.9065 7.90569 35.1273 7.39998 36.4004 7.39998C37.6734 7.39998 38.8943 7.90569 39.7945 8.80587C40.6947 9.70604 41.2004 10.9269 41.2004 12.2ZM31.6004 29C31.6004 26.4539 30.589 24.0121 28.7886 22.2118C26.9883 20.4114 24.5465 19.4 22.0004 19.4C19.4543 19.4 17.0125 20.4114 15.2122 22.2118C13.4118 24.0121 12.4004 26.4539 12.4004 29V36.2H31.6004L31.6004 29ZM12.4004 12.2C12.4004 13.473 11.8947 14.6939 10.9945 15.5941C10.0943 16.4943 8.87343 17 7.60039 17C6.32735 17 5.10645 16.4943 4.20628 15.5941C3.3061 14.6939 2.80039 13.473 2.80039 12.2C2.80039 10.9269 3.3061 9.70604 4.20628 8.80587C5.10645 7.90569 6.32735 7.39998 7.60039 7.39998C8.87343 7.39998 10.0943 7.90569 10.9945 8.80587C11.8947 9.70604 12.4004 10.9269 12.4004 12.2ZM36.4004 36.2V29C36.4039 26.5599 35.7843 24.1593 34.6004 22.0256C35.6644 21.7533 36.7766 21.7276 37.8521 21.9505C38.9275 22.1734 39.9379 22.639 40.806 23.3118C41.6742 23.9845 42.3772 24.8467 42.8615 25.8325C43.3458 26.8183 43.5985 27.9017 43.6004 29V36.2H36.4004ZM9.40039 22.0256C8.21659 24.1593 7.59703 26.5599 7.60039 29V36.2H0.400391L0.400391 29C0.399929 27.9009 0.651103 26.8162 1.13466 25.8292C1.61822 24.8422 2.32134 23.979 3.19011 23.3058C4.05889 22.6325 5.07026 22.1671 6.14673 21.9452C7.2232 21.7233 8.33619 21.7508 9.40039 22.0256Z" fill="#3EA584"/>
</svg>
