<svg width="50" height="50" viewBox="0 0 50 50" fill="none" xmlns="http://www.w3.org/2000/svg">
<circle cx="25" cy="25.0001" r="24.5902" fill="#455A64"/>
<path d="M25 0C11.25 0 0 11.25 0 25C0 38.75 11.25 50 25 50C38.75 50 50 38.75 50 25C50 11.25 38.75 0 25 0ZM25 12.5C29.25 12.5 32.5 15.75 32.5 20C32.5 24.25 29.25 27.5 25 27.5C20.75 27.5 17.5 24.25 17.5 20C17.5 15.75 20.75 12.5 25 12.5ZM25 45C19.5 45 14.25 42.75 10.5 38.75C16 30.75 26.75 28.75 34.75 34.25C36.5 35.5 38 37 39.25 38.75C35.75 42.75 30.5 45 25 45Z" fill="#ECEFF1"/>
</svg>
