<svg width="24" height="16" viewBox="0 0 34 26" fill="none" xmlns="http://www.w3.org/2000/svg">
<path fill-rule="evenodd" clip-rule="evenodd" d="M4.16928 0.516495C3.07492 0.516495 2.02537 0.95123 1.25154 1.72506C0.477704 2.4989 0.0429688 3.54844 0.0429688 4.64281V12.8954C0.0429688 13.9898 0.477704 15.0394 1.25154 15.8132C2.02537 16.587 3.07492 17.0218 4.16928 17.0218V4.64281H24.8009C24.8009 3.54844 24.3661 2.4989 23.5923 1.72506C22.8185 0.95123 21.7689 0.516495 20.6745 0.516495H4.16928ZM8.2956 12.8954C8.2956 11.8011 8.73034 10.7515 9.50417 9.9777C10.278 9.20386 11.3275 8.76913 12.4219 8.76913H28.9272C30.0215 8.76913 31.0711 9.20386 31.8449 9.9777C32.6188 10.7515 33.0535 11.8011 33.0535 12.8954V21.1481C33.0535 22.2424 32.6188 23.292 31.8449 24.0658C31.0711 24.8397 30.0215 25.2744 28.9272 25.2744H12.4219C11.3275 25.2744 10.278 24.8397 9.50417 24.0658C8.73034 23.292 8.2956 22.2424 8.2956 21.1481V12.8954ZM20.6745 21.1481C21.7689 21.1481 22.8185 20.7133 23.5923 19.9395C24.3661 19.1657 24.8009 18.1161 24.8009 17.0218C24.8009 15.9274 24.3661 14.8778 23.5923 14.104C22.8185 13.3302 21.7689 12.8954 20.6745 12.8954C19.5802 12.8954 18.5306 13.3302 17.7568 14.104C16.983 14.8778 16.5482 15.9274 16.5482 17.0218C16.5482 18.1161 16.983 19.1657 17.7568 19.9395C18.5306 20.7133 19.5802 21.1481 20.6745 21.1481Z" fill="#2D2F39"/>
</svg>
