<svg width="12" height="14" viewBox="0 0 12 15" fill="none" xmlns="http://www.w3.org/2000/svg">
<path d="M8 0.666626L4 0.666626V1.99996L8 1.99996V0.666626ZM5.33333 9.33329H6.66667L6.66667 5.33329H5.33333L5.33333 9.33329ZM10.6867 4.92663L11.6333 3.97996C11.3467 3.63996 11.0333 3.31996 10.6933 3.03996L9.74667 3.98663C8.71333 3.15996 7.41333 2.66663 6 2.66663C2.68667 2.66663 0 5.35329 0 8.66663C0 11.98 2.68 14.6666 6 14.6666C9.32 14.6666 12 11.98 12 8.66663C12 7.25329 11.5067 5.95329 10.6867 4.92663ZM6 13.3333C3.42 13.3333 1.33333 11.2466 1.33333 8.66663C1.33333 6.08663 3.42 3.99996 6 3.99996C8.58 3.99996 10.6667 6.08663 10.6667 8.66663C10.6667 11.2466 8.58 13.3333 6 13.3333Z" fill="#ED3237"/>
</svg>
