<svg width="30" height="37" viewBox="0 0 30 37" fill="none" xmlns="http://www.w3.org/2000/svg">
<path fill-rule="evenodd" clip-rule="evenodd" d="M0.600098 4.99998C0.600098 3.72694 1.10581 2.50604 2.00598 1.60587C2.90616 0.705694 4.12706 0.199982 5.4001 0.199982C5.4001 2.10954 6.15867 3.94089 7.50893 5.29115C8.85919 6.64141 10.6905 7.39998 12.6001 7.39998H17.4001C19.3097 7.39998 21.141 6.64141 22.4913 5.29115C23.8415 3.94089 24.6001 2.10954 24.6001 0.199982C25.8731 0.199982 27.094 0.705694 27.9942 1.60587C28.8944 2.50604 29.4001 3.72694 29.4001 4.99998L29.4001 31.4C29.4001 32.673 28.8944 33.8939 27.9942 34.7941C27.094 35.6943 25.8731 36.2 24.6001 36.2H5.4001C4.12706 36.2 2.90616 35.6943 2.00598 34.7941C1.10581 33.8939 0.600098 32.673 0.600098 31.4L0.600098 4.99998ZM7.8001 14.6C7.16358 14.6 6.55313 14.8528 6.10304 15.3029C5.65295 15.753 5.4001 16.3635 5.4001 17C5.4001 17.6365 5.65295 18.2469 6.10304 18.697C6.55313 19.1471 7.16358 19.4 7.8001 19.4H7.8241C8.46062 19.4 9.07107 19.1471 9.52115 18.697C9.97124 18.2469 10.2241 17.6365 10.2241 17C10.2241 16.3635 9.97124 15.753 9.52115 15.3029C9.07107 14.8528 8.46062 14.6 7.8241 14.6H7.8001ZM15.0001 14.6C14.3636 14.6 13.7531 14.8528 13.303 15.3029C12.853 15.753 12.6001 16.3635 12.6001 17C12.6001 17.6365 12.853 18.2469 13.303 18.697C13.7531 19.1471 14.3636 19.4 15.0001 19.4H22.2001C22.8366 19.4 23.4471 19.1471 23.8972 18.697C24.3472 18.2469 24.6001 17.6365 24.6001 17C24.6001 16.3635 24.3472 15.753 23.8972 15.3029C23.4471 14.8528 22.8366 14.6 22.2001 14.6L15.0001 14.6ZM7.8001 24.2C7.16358 24.2 6.55313 24.4528 6.10304 24.9029C5.65295 25.353 5.4001 25.9635 5.4001 26.6C5.4001 27.2365 5.65295 27.8469 6.10304 28.297C6.55313 28.7471 7.16358 29 7.8001 29H7.8241C8.46062 29 9.07107 28.7471 9.52115 28.297C9.97124 27.8469 10.2241 27.2365 10.2241 26.6C10.2241 25.9635 9.97124 25.353 9.52115 24.9029C9.07107 24.4528 8.46062 24.2 7.8241 24.2H7.8001ZM15.0001 24.2C14.3636 24.2 13.7531 24.4528 13.303 24.9029C12.853 25.353 12.6001 25.9635 12.6001 26.6C12.6001 27.2365 12.853 27.8469 13.303 28.297C13.7531 28.7471 14.3636 29 15.0001 29H22.2001C22.8366 29 23.4471 28.7471 23.8972 28.297C24.3472 27.8469 24.6001 27.2365 24.6001 26.6C24.6001 25.9635 24.3472 25.353 23.8972 24.9029C23.4471 24.4528 22.8366 24.2 22.2001 24.2H15.0001Z" fill="#ED3237"/>
</svg>
