<svg width="48" height="48" viewBox="0 0 48 48" fill="none" xmlns="http://www.w3.org/2000/svg">
<path d="M21.6001 4.80005C20.9636 4.80005 20.3531 5.05291 19.903 5.50299C19.4529 5.95308 19.2001 6.56353 19.2001 7.20005C19.2001 7.83657 19.4529 8.44702 19.903 8.89711C20.3531 9.34719 20.9636 9.60005 21.6001 9.60005H26.4001C27.0366 9.60005 27.647 9.34719 28.0971 8.89711C28.5472 8.44702 28.8001 7.83657 28.8001 7.20005C28.8001 6.56353 28.5472 5.95308 28.0971 5.50299C27.647 5.05291 27.0366 4.80005 26.4001 4.80005H21.6001Z" fill="current"/>
<path fill-rule="evenodd" clip-rule="evenodd" d="M9.6001 11.9999C9.6001 10.7269 10.1058 9.50601 11.006 8.60584C11.9062 7.70566 13.1271 7.19995 14.4001 7.19995C14.4001 9.10951 15.1587 10.9409 16.5089 12.2911C17.8592 13.6414 19.6905 14.3999 21.6001 14.3999H26.4001C28.3097 14.3999 30.141 13.6414 31.4913 12.2911C32.8415 10.9409 33.6001 9.10951 33.6001 7.19995C34.8731 7.19995 36.094 7.70566 36.9942 8.60584C37.8944 9.50601 38.4001 10.7269 38.4001 11.9999V38.3999C38.4001 39.673 37.8944 40.8939 36.9942 41.7941C36.094 42.6942 34.8731 43.1999 33.6001 43.1999H14.4001C13.1271 43.1999 11.9062 42.6942 11.006 41.7941C10.1058 40.8939 9.6001 39.673 9.6001 38.3999L9.6001 11.9999ZM16.8001 21.5999C16.1636 21.5999 15.5531 21.8528 15.103 22.3029C14.653 22.753 14.4001 23.3634 14.4001 23.9999C14.4001 24.6365 14.653 25.2469 15.103 25.697C15.5531 26.1471 16.1636 26.3999 16.8001 26.3999H16.8241C17.4606 26.3999 18.0711 26.1471 18.5212 25.697C18.9712 25.2469 19.2241 24.6365 19.2241 23.9999C19.2241 23.3634 18.9712 22.753 18.5212 22.3029C18.0711 21.8528 17.4606 21.5999 16.8241 21.5999H16.8001ZM24.0001 21.5999C23.3636 21.5999 22.7531 21.8528 22.303 22.3029C21.853 22.753 21.6001 23.3634 21.6001 23.9999C21.6001 24.6365 21.853 25.2469 22.303 25.697C22.7531 26.1471 23.3636 26.3999 24.0001 26.3999H31.2001C31.8366 26.3999 32.4471 26.1471 32.8972 25.697C33.3472 25.2469 33.6001 24.6365 33.6001 23.9999C33.6001 23.3634 33.3472 22.753 32.8972 22.3029C32.4471 21.8528 31.8366 21.5999 31.2001 21.5999H24.0001ZM16.8001 31.1999C16.1636 31.1999 15.5531 31.4528 15.103 31.9029C14.653 32.353 14.4001 32.9634 14.4001 33.5999C14.4001 34.2365 14.653 34.8469 15.103 35.297C15.5531 35.7471 16.1636 35.9999 16.8001 35.9999H16.8241C17.4606 35.9999 18.0711 35.7471 18.5212 35.297C18.9712 34.8469 19.2241 34.2365 19.2241 33.5999C19.2241 32.9634 18.9712 32.353 18.5212 31.9029C18.0711 31.4528 17.4606 31.1999 16.8241 31.1999H16.8001ZM24.0001 31.1999C23.3636 31.1999 22.7531 31.4528 22.303 31.9029C21.853 32.353 21.6001 32.9634 21.6001 33.5999C21.6001 34.2365 21.853 34.8469 22.303 35.297C22.7531 35.7471 23.3636 35.9999 24.0001 35.9999H31.2001C31.8366 35.9999 32.4471 35.7471 32.8972 35.297C33.3472 34.8469 33.6001 34.2365 33.6001 33.5999C33.6001 32.9634 33.3472 32.353 32.8972 31.9029C32.4471 31.4528 31.8366 31.1999 31.2001 31.1999H24.0001Z" fill="current" />
</svg>
