<svg width="10" height="12" viewBox="0 0 10 12" fill="none" xmlns="http://www.w3.org/2000/svg">
<path d="M7.02759 0.444459C7.26345 0.443905 7.44994 0.627147 7.45049 0.871469L7.45104 1.28793C8.9814 1.40787 9.99232 2.45068 9.99396 4.04988L10 8.73087C10.0022 10.4744 8.9068 11.5472 7.151 11.55L2.86216 11.5556C1.11733 11.5578 0.00823511 10.4594 0.00604105 8.71088L3.68189e-06 4.08486C-0.00218669 2.47511 0.973074 1.43508 2.50343 1.29459L2.50288 0.878132C2.50234 0.63381 2.68335 0.450013 2.92469 0.450013C3.16604 0.449458 3.34705 0.6327 3.3476 0.877022L3.34815 1.26572L6.60633 1.26127L6.60578 0.872579C6.60523 0.628257 6.78624 0.445016 7.02759 0.444459ZM7.25138 8.32885H7.2459C6.99358 8.33495 6.79118 8.54651 6.79666 8.80194C6.79721 9.05737 7.00071 9.26782 7.25303 9.27337C7.51028 9.27282 7.71872 9.06126 7.71817 8.80028C7.71817 8.5393 7.50918 8.32885 7.25138 8.32885ZM2.73161 8.3294C2.4793 8.34051 2.28183 8.55207 2.28238 8.80749C2.2939 9.06292 2.50234 9.26282 2.75465 9.25116C3.00203 9.24006 3.19895 9.02849 3.18743 8.77307C3.18195 8.52319 2.97845 8.32885 2.73161 8.3294ZM4.9915 8.32662C4.73918 8.33829 4.54226 8.54929 4.54226 8.80472C4.55378 9.06015 4.76222 9.25949 5.01454 9.24839C5.26137 9.23672 5.45883 9.02572 5.44731 8.76974C5.44183 8.52042 5.23833 8.32607 4.9915 8.32662ZM2.72887 6.3304C2.47656 6.34151 2.27964 6.55307 2.28019 6.8085C2.29116 7.06392 2.50014 7.26382 2.75246 7.25216C2.99929 7.24106 3.19621 7.0295 3.18469 6.77407C3.1792 6.52419 2.97625 6.32985 2.72887 6.3304ZM4.9893 6.31097C4.73699 6.32207 4.53952 6.53363 4.54007 6.78906C4.55104 7.04449 4.76003 7.24383 5.01234 7.23273C5.25917 7.22107 5.45609 7.01006 5.44512 6.75463C5.43909 6.50476 5.23614 6.31041 4.9893 6.31097ZM7.24919 6.31374C6.99687 6.3193 6.79941 6.52475 6.79995 6.78018V6.78628C6.80544 7.04171 7.01388 7.2355 7.26674 7.22995C7.51357 7.22384 7.71049 7.01228 7.705 6.75686C7.69349 6.51253 7.49547 6.31319 7.24919 6.31374ZM6.60743 2.1164L3.34924 2.12084L3.34979 2.57006C3.34979 2.80939 3.16933 2.99818 2.92798 2.99818C2.68664 2.99874 2.50508 2.8105 2.50508 2.57117L2.50453 2.14361C1.43492 2.25078 0.843076 2.87935 0.844718 4.08375L0.84527 4.25644L9.14979 4.24533V4.05099C9.12621 2.85714 8.52723 2.23079 7.45214 2.1375L7.45269 2.56507C7.45269 2.80383 7.26674 2.99318 7.03088 2.99318C6.78953 2.99374 6.60797 2.80494 6.60797 2.56618L6.60743 2.1164Z" fill="#ED3237"/>
</svg>
