<svg width="32" height="21" viewBox="0 0 32 21" fill="none" xmlns="http://www.w3.org/2000/svg">
<path fill-rule="evenodd" clip-rule="evenodd" d="M19.814 16.2403C19.2968 16.2403 18.8007 16.4458 18.435 16.8115C18.0693 17.1773 17.8638 17.6733 17.8638 18.1905C17.8638 18.7078 18.0693 19.2038 18.435 19.5695C18.8007 19.9353 19.2968 20.1407 19.814 20.1407L29.565 20.1407C30.0822 20.1407 30.5783 19.9353 30.944 19.5695C31.3098 19.2038 31.5152 18.7078 31.5152 18.1905V8.43952C31.5152 7.9223 31.3098 7.42625 30.944 7.06052C30.5783 6.69479 30.0822 6.48932 29.565 6.48932C29.0478 6.48932 28.5517 6.69479 28.186 7.06052C27.8203 7.42625 27.6148 7.9223 27.6148 8.43952V13.4827L19.2426 5.11053C18.8769 4.74492 18.3809 4.53953 17.8638 4.53953C17.3467 4.53953 16.8507 4.74492 16.485 5.11053L12.0132 9.58234L3.64097 1.21012C3.27316 0.854875 2.78053 0.658304 2.26919 0.662748C1.75786 0.667191 1.26872 0.872292 0.907139 1.23388C0.545555 1.59546 0.340455 2.08459 0.336011 2.59593C0.331568 3.10727 0.528137 3.59989 0.883382 3.96771L10.6344 13.7187C11.0001 14.0843 11.4961 14.2897 12.0132 14.2897C12.5303 14.2897 13.0263 14.0843 13.392 13.7187L17.8638 9.2469L24.8572 16.2403H19.814Z" fill="#3EA584"/>
</svg>
