<svg width="812" height="1024" viewBox="0 0 812 1024" fill="none" xmlns="http://www.w3.org/2000/svg">
<path d="M0 -50V1047H916V-50H0ZM817.865 -17.6328L883.216 25.9385V55.069L817.865 11.4978V-17.6328ZM817.865 40.3792L883.216 83.9505V113.081L817.865 69.5098V40.3792ZM108.919 789.058L130.703 803.499L65.3515 847.07L43.5677 832.629L108.919 789.058ZM32.5679 810.719V723.577L54.3518 709.136V796.279L32.5679 810.719ZM719.73 352.847L697.946 338.407L763.297 294.835L785.081 309.276L719.73 352.847ZM795.865 331.186V418.329L774.081 432.77V345.627L795.865 331.186ZM752.298 360.317V447.459L730.514 461.9V374.758L752.298 360.317ZM708.73 374.758V403.888L643.378 360.317V331.186L708.73 374.758ZM708.73 433.019V462.149L643.378 418.578V389.447L708.73 433.019ZM654.162 454.68L588.811 498.251L567.027 483.81L632.379 440.239L654.162 454.68ZM556.027 461.9V374.758L577.811 360.317V447.459L556.027 461.9ZM621.595 418.329L599.811 432.77V345.627L621.595 331.186V418.329ZM545.243 352.847L523.459 338.407L588.811 294.835L610.595 309.276L545.243 352.847ZM534.243 374.758V403.888L468.892 360.317V331.186L534.243 374.758ZM534.243 433.019V462.149L468.892 418.329V389.198L534.243 433.019ZM479.676 454.68L414.324 498.251L392.541 483.81L457.892 440.239L479.676 454.68ZM381.541 461.9V374.758L403.325 360.317V447.459L381.541 461.9ZM447.108 418.329L425.324 432.77V345.627L447.108 331.186V418.329ZM370.757 352.847L348.973 338.407L414.324 294.835L436.108 309.276L370.757 352.847ZM359.757 374.758V403.888L294.405 360.317V331.186L359.757 374.758ZM359.757 433.019V462.149L294.405 418.578V389.447L359.757 433.019ZM305.19 454.68L239.838 498.251L218.054 483.81L283.406 440.239L305.19 454.68ZM207.054 461.9V374.758L228.838 360.317V447.459L207.054 461.9ZM272.622 418.329L250.838 432.77V345.627L272.622 331.186V418.329ZM196.27 352.847L174.486 338.407L239.838 294.835L261.622 309.276L196.27 352.847ZM185.271 374.758V403.888L119.919 360.317V331.186L185.271 374.758ZM185.271 433.019V462.149L119.919 418.578V389.447L185.271 433.019ZM174.486 483.81L109.135 527.382L87.3511 512.941L152.703 469.37L174.486 483.81ZM185.271 505.72V592.863L163.487 607.304V520.161L185.271 505.72ZM119.919 549.292L141.703 534.851V621.994L119.919 636.434V549.292ZM196.27 614.524L218.054 628.965L152.703 672.536L130.919 658.095L196.27 614.524ZM207.054 592.863V563.732L272.622 607.304V636.434L207.054 592.863ZM207.054 534.602V505.471L272.406 549.043V578.173L207.054 534.602ZM261.622 512.941L326.973 469.37L348.757 483.81L283.406 527.382L261.622 512.941ZM359.757 505.72V592.863L337.973 607.304V520.161L359.757 505.72ZM294.405 549.292L316.189 534.851V621.994L294.405 636.434V549.292ZM370.757 614.524L392.541 628.965L327.189 672.536L305.405 658.095L370.757 614.524ZM381.541 592.863V563.732L446.892 607.304V636.434L381.541 592.863ZM381.541 534.602V505.471L446.892 549.043V578.173L381.541 534.602ZM436.108 512.941L501.46 469.37L523.244 483.81L457.892 527.382L436.108 512.941ZM534.243 505.72V592.863L512.46 607.304V520.161L534.243 505.72ZM468.892 549.292L490.676 534.851V621.994L468.892 636.434V549.292ZM545.243 614.524L567.027 628.965L501.676 672.536L479.892 658.095L545.243 614.524ZM556.027 592.863V563.732L621.379 607.304V636.434L556.027 592.863ZM556.027 534.602V505.471L621.379 549.043V578.173L556.027 534.602ZM610.595 512.941L675.946 469.37L697.73 483.81L632.379 527.382L610.595 512.941ZM708.73 505.72V592.863L686.946 607.304V520.161L708.73 505.72ZM643.378 549.292L665.162 534.851V621.994L643.378 636.434V549.292ZM719.73 614.524L741.514 628.965L675.946 672.785L654.162 658.344L719.73 614.524ZM730.514 592.863V563.732L795.865 607.304V636.434L730.514 592.863ZM730.514 534.602V505.471L795.865 549.043V578.173L730.514 534.602ZM741.514 483.81L806.865 440.239L828.649 454.68L763.297 498.251L741.514 483.81ZM795.865 229.354L730.514 185.783V156.652L795.865 200.224V229.354ZM795.865 258.485V287.615L730.514 244.044V214.913L795.865 258.485ZM741.514 280.395L675.946 323.966L654.162 309.525L719.514 265.954L741.514 280.395ZM643.378 287.615V200.473L665.162 186.032V273.174L643.378 287.615ZM708.73 244.044L686.946 258.485V171.342L708.73 156.901V244.044ZM632.379 178.562L610.595 164.122L675.946 120.55L697.73 134.991L632.379 178.562ZM621.595 200.224V229.354L556.243 185.783V156.652L621.595 200.224ZM621.595 258.485V287.615L556.243 244.044V214.913L621.595 258.485ZM567.027 280.395L501.676 323.966L479.892 309.525L545.243 265.954L567.027 280.395ZM468.892 287.615V200.473L490.676 186.032V273.174L468.892 287.615ZM534.243 244.044L512.46 258.485V171.342L534.243 156.901V244.044ZM457.892 178.562L436.108 164.122L501.46 120.55L523.244 134.991L457.892 178.562ZM447.108 200.224V229.354L381.757 185.783V156.652L447.108 200.224ZM447.108 258.485V287.615L381.757 244.044V214.913L447.108 258.485ZM392.541 280.395L327.189 323.966L305.405 309.525L370.757 265.954L392.541 280.395ZM294.405 287.615V200.473L316.189 186.032V273.174L294.405 287.615ZM359.757 244.044L337.973 258.485V171.342L359.757 156.901V244.044ZM283.406 178.562L261.622 164.122L326.973 120.55L348.757 134.991L283.406 178.562ZM272.622 200.224V229.354L207.27 185.783V156.652L272.622 200.224ZM272.622 258.485V287.615L207.27 244.044V214.913L272.622 258.485ZM218.054 280.395L152.703 323.966L130.919 309.525L196.27 265.954L218.054 280.395ZM119.919 287.615V200.473L141.703 186.032V273.174L119.919 287.615ZM185.271 244.044L163.487 258.485V171.342L185.271 156.901V244.044ZM108.919 178.562L87.1354 164.122L152.487 120.55L174.271 134.991L108.919 178.562ZM98.1352 200.224V229.354L32.7836 185.783V156.652L98.1352 200.224ZM98.1352 258.485V287.615L32.7836 244.044V214.913L98.1352 258.485ZM108.919 440.239L130.703 454.68L65.3515 498.251L43.5677 483.81L108.919 440.239ZM76.3513 433.019V345.876L98.1352 331.435V418.578L76.3513 433.019ZM54.3518 447.459L32.5679 461.9V374.758L54.3518 360.317V447.459ZM98.1352 549.292V578.422L32.7836 534.851V505.72L98.1352 549.292ZM98.1352 607.304V636.434L32.7836 592.863V563.732L98.1352 607.304ZM76.3513 781.838V694.695L98.1352 680.254V767.397L76.3513 781.838ZM119.919 767.148V738.018L185.271 781.589V810.719L119.919 767.148ZM119.919 709.136V680.006L185.271 723.577V752.707L119.919 709.136ZM174.486 687.226L239.838 643.655L261.622 658.095L196.27 701.916L174.486 687.226ZM272.622 680.006V767.148L250.838 781.589V694.446L272.622 680.006ZM207.054 723.577L228.838 709.136V796.279L207.054 810.719V723.577ZM283.406 789.058L305.19 803.499L239.838 847.07L218.054 832.629L283.406 789.058ZM294.405 767.148V738.018L359.757 781.589V810.719L294.405 767.148ZM294.405 709.136V680.006L359.757 723.577V752.707L294.405 709.136ZM348.757 687.226L414.109 643.655L435.893 658.095L370.757 701.916L348.757 687.226ZM447.108 680.006V767.148L425.324 781.589V694.446L447.108 680.006ZM381.541 723.577L403.325 709.136V796.279L381.541 810.719V723.577ZM457.892 789.058L479.676 803.499L414.324 847.07L392.541 832.629L457.892 789.058ZM468.892 767.148V738.018L534.243 781.589V810.719L468.892 767.148ZM468.892 709.136V680.006L534.243 723.577V752.707L468.892 709.136ZM523.459 687.226L588.811 643.655L610.595 658.095L545.243 701.916L523.459 687.226ZM621.595 680.006V767.148L599.811 781.589V694.446L621.595 680.006ZM556.027 723.577L577.811 709.136V796.279L556.027 810.719V723.577ZM632.379 789.058L654.162 803.499L588.811 847.07L567.027 832.629L632.379 789.058ZM643.378 767.148V738.018L708.73 781.589V810.719L643.378 767.148ZM643.378 709.136V680.006L708.73 723.577V752.707L643.378 709.136ZM697.73 687.226L763.082 643.655L784.866 658.095L719.73 701.916L697.73 687.226ZM795.865 680.006V767.148L774.081 781.589V694.446L795.865 680.006ZM730.514 723.577L752.298 709.136V796.279L730.514 810.719V723.577ZM806.865 789.058L828.649 803.499L763.297 847.07L741.514 832.629L806.865 789.058ZM817.865 767.148V738.018L883.216 781.589V810.719L817.865 767.148ZM817.865 709.136V680.006L883.216 723.577V752.707L817.865 709.136ZM806.865 527.382L785.081 512.941L850.433 469.37L872.217 483.81L806.865 527.382ZM839.649 534.602V621.744L817.865 636.185V549.043L839.649 534.602ZM861.433 520.161L883.216 505.72V592.863L861.433 607.304V520.161ZM817.865 418.329V389.198L883.216 432.77V461.9L817.865 418.329ZM817.865 360.317V331.186L883.216 374.758V403.888L817.865 360.317ZM806.865 178.562L785.081 164.122L850.433 120.55L872.217 134.991L806.865 178.562ZM839.649 185.783V272.925L817.865 287.366V200.224L839.649 185.783ZM861.433 171.342L883.216 156.901V244.044L861.433 258.485V171.342ZM828.649 105.861L763.297 149.432L741.514 134.991L806.865 91.4199L828.649 105.861ZM730.514 113.081V25.9385L752.298 11.4978V98.6403L730.514 113.081ZM774.081 -3.19204L795.865 -17.6328V69.5098L774.081 83.9505V-3.19204ZM719.73 -24.8532H763.297L719.73 4.27732L697.946 -10.1634L719.73 -24.8532ZM643.378 -17.6328L708.73 25.9385V55.069L643.378 11.4978V-17.6328ZM643.378 40.3792L708.73 83.9505V113.081L643.378 69.5098V40.3792ZM654.162 105.861L588.811 149.432L567.027 134.991L632.379 91.4199L654.162 105.861ZM556.027 113.081V25.9385L577.811 11.4978V98.6403L556.027 113.081ZM599.595 -3.19204L621.379 -17.6328V69.5098L599.595 83.9505V-3.19204ZM545.243 -24.8532H588.811L545.243 4.27732L523.459 -10.1634L545.243 -24.8532ZM468.892 -17.6328L534.243 25.9385V55.069L468.892 11.4978V-17.6328ZM468.892 40.3792L534.243 83.9505V113.081L468.892 69.5098V40.3792ZM479.676 105.861L414.324 149.432L392.541 134.991L457.892 91.4199L479.676 105.861ZM381.541 113.081V25.9385L403.325 11.4978V98.6403L381.541 113.081ZM425.109 -3.19204L446.892 -17.6328V69.5098L425.109 83.9505V-3.19204ZM370.757 -24.8532H414.324L370.757 4.27732L348.973 -10.1634L370.757 -24.8532ZM294.405 -17.6328L359.757 25.9385V55.069L294.405 11.4978V-17.6328ZM294.405 40.3792L359.757 83.9505V113.081L294.405 69.5098V40.3792ZM305.19 105.861L239.838 149.432L218.054 134.991L283.406 91.4199L305.19 105.861ZM207.054 113.081V25.9385L228.838 11.4978V98.6403L207.054 113.081ZM250.622 -3.19204L272.622 -17.6328V69.5098L250.838 83.9505V-3.19204H250.622ZM196.27 -24.8532H239.838L196.27 4.27732L174.486 -10.1634L196.27 -24.8532ZM119.919 -17.6328L185.271 25.9385V55.069L119.919 11.4978V-17.6328ZM119.919 40.3792L185.271 83.9505V113.081L119.919 69.5098V40.3792ZM130.703 105.861L65.3515 149.432L43.5677 134.991L108.919 91.4199L130.703 105.861ZM32.5679 113.081V25.9385L54.3518 11.4978V98.6403L32.5679 113.081ZM76.3513 -3.19204L98.1352 -17.6328V69.5098L76.3513 83.9505V-3.19204ZM21.7838 -24.8532H65.3515L21.7838 4.27732V-24.8532ZM21.7838 265.705L43.5677 280.146L21.7838 294.587V265.705ZM21.7838 323.966L65.3515 294.835L87.1354 309.276L21.7838 352.847V323.966ZM21.7838 614.524L43.5677 628.965L21.7838 643.406V614.524ZM21.7838 672.785L65.3515 643.655L87.1354 658.095L21.7838 701.916V672.785ZM21.7838 963.343L43.5677 977.784L21.7838 992.225V963.343ZM65.3515 1021.6H21.7838L65.3515 992.474L87.1354 1006.91L65.3515 1021.6ZM98.1352 985.254L32.7836 941.682V912.552L98.1352 956.123V985.254ZM98.1352 927.241L32.7836 883.67V854.54L98.1352 898.111V927.241ZM87.1354 861.76L152.487 818.189L174.271 832.629L108.919 876.201L87.1354 861.76ZM185.271 854.54V941.682L163.487 956.123V868.98L185.271 854.54ZM119.919 898.111L141.703 883.67V970.813L119.919 985.254V898.111ZM130.703 1007.16L196.055 963.592L217.839 978.033L152.487 1021.6L130.703 1007.16ZM239.838 1021.6H196.27L239.838 992.474L261.622 1006.91L239.838 1021.6ZM272.622 985.254L207.27 941.682V912.552L272.622 956.123V985.254ZM272.622 927.241L207.27 883.67V854.54L272.622 898.111V927.241ZM261.622 861.76L326.973 818.189L348.757 832.629L283.406 876.201L261.622 861.76ZM359.757 854.54V941.682L337.973 956.123V868.98L359.757 854.54ZM294.405 898.111L316.189 883.67V970.813L294.405 985.254V898.111ZM305.19 1007.16L370.541 963.592L392.325 978.033L326.973 1021.6L305.19 1007.16ZM414.324 1021.6H370.757L414.324 992.474L436.108 1006.91L414.324 1021.6ZM447.108 985.254L381.757 941.682V912.552L447.108 956.123V985.254ZM447.108 927.241L381.757 883.67V854.54L447.108 898.111V927.241ZM436.108 861.76L501.46 818.189L523.244 832.629L457.892 876.201L436.108 861.76ZM534.243 854.54V941.682L512.46 956.123V868.98L534.243 854.54ZM468.892 898.111L490.676 883.67V970.813L468.892 985.254V898.111ZM479.676 1007.16L545.028 963.592L566.811 978.033L501.46 1021.6L479.676 1007.16ZM588.811 1021.6H545.243L588.811 992.474L610.595 1006.91L588.811 1021.6ZM621.595 985.254L556.243 941.682V912.552L621.595 956.123V985.254ZM621.595 927.241L556.243 883.67V854.54L621.595 898.111V927.241ZM610.595 861.76L675.946 818.189L697.73 832.629L632.379 876.201L610.595 861.76ZM708.73 854.54V941.682L686.946 956.123V868.98L708.73 854.54ZM643.378 898.111L665.162 883.67V970.813L643.378 985.254V898.111ZM654.162 1007.16L719.514 963.592L741.298 978.033L675.946 1021.6L654.162 1007.16ZM763.297 1021.6H719.73L763.297 992.474L785.081 1006.91L763.297 1021.6ZM795.865 985.254L730.514 941.682V912.552L795.865 956.123V985.254ZM795.865 927.241L730.514 883.67V854.54L795.865 898.111V927.241ZM785.081 861.76L850.433 818.189L872.217 832.629L806.865 876.201L785.081 861.76ZM883.216 854.54V941.682L861.433 956.123V868.98L883.216 854.54ZM817.865 898.111L839.649 883.67V970.813L817.865 985.254V898.111ZM894.216 992.474L850.648 1021.6L828.865 1007.16L894.216 963.592V992.474ZM894.216 701.916L872.432 687.475L894.216 673.034V701.916ZM894.216 643.655L850.648 672.785L828.865 658.344L894.216 614.773V643.655ZM894.216 352.847L872.217 338.407L894 323.966V352.847H894.216ZM894.216 294.835L850.648 323.966L828.865 309.525L894.216 265.954V294.835ZM894.216 4.0284L872.432 -10.4123L894.216 -24.8532V4.0284Z" fill="#F8F8F8"/>
</svg>
