<svg width="170" height="61" viewBox="0 0 170 61" fill="none" xmlns="http://www.w3.org/2000/svg">
<path fill-rule="evenodd" clip-rule="evenodd" d="M17.4962 49.0489L18.0622 49.9693C18.2028 50.1421 18.361 50.2998 18.5344 50.4398C19.2592 33.5893 32.8002 19.9511 49.9549 18.4461C47.6709 16.2902 42.678 17.2984 34.488 17.177C33.3762 12.6211 35.3612 4.09333 33.6718 1.69462C32.0665 -0.58432 29.4755 0.0948053 25.7548 0.0944019C21.1796 0.0944019 17.3128 -0.576252 17.1934 4.23408C17.1006 7.9616 17.5595 13.6844 17.0828 17.0066C15.5029 17.6232 7.12699 17.0473 4.63075 17.2092C-0.109746 17.5167 0.0690763 21.3324 0.0743298 25.6102C0.0767544 27.5733 -0.288968 30.1017 0.580288 31.7509C3.08723 36.5064 10.6638 33.1537 17.0432 34.4118C17.8327 37.9729 16.4494 46.0626 17.4962 49.0487L17.4962 49.0489Z" fill="#3E5EA9"/>
<path fill-rule="evenodd" clip-rule="evenodd" d="M52.4683 21.8628C51.4897 19.9739 43.4649 22.0104 41.9683 22.5184C33.9579 25.2359 27.2467 31.4869 24.0204 39.7564C23.0273 42.3027 21.2748 48.8397 21.9608 50.6994C22.5541 50.9222 26.3429 51.1594 27.1756 50.9793C27.8001 50.5843 27.549 46.4847 29.1668 42.5525C30.4519 39.4269 31.7669 37.0804 34.4343 34.3268C37.089 31.5888 39.6527 29.9528 42.7209 28.7017C45.0818 27.7396 48.8294 27.0722 50.8146 27.2275C51.0801 27.9054 50.8498 29.5647 50.954 30.3557C50.044 30.7391 48.5012 30.6654 47.3936 30.8578C39.2112 32.2868 32.6873 38.7524 31.1598 47.1812C30.2848 52.0174 30.6843 51.1729 33.5954 51.3521C34.5574 51.4112 35.5182 51.5921 36.3306 51.3431C36.8257 50.0883 36.7061 48.2114 37.4363 46.2549C38.0954 44.4857 38.9831 42.854 40.4605 41.2304C42.942 38.5034 47.8928 36.0057 50.5501 36.7653C50.6287 37.6815 50.5822 39.2902 50.3701 39.9183C47.8769 40.5644 45.6104 40.423 42.763 43.5434C40.7905 45.707 39.3199 49.76 39.8285 51.7125C42.9951 52.0893 42.4777 51.9097 45.2578 51.7897C46.0297 48.3858 47.4249 46.2627 50.3448 45.8839C50.5178 48.3501 50.6695 50.0312 50.9015 51.1864C51.5606 54.4677 51.8063 49.806 51.6374 44.4927C51.6182 43.8866 51.6774 43.0631 51.3624 43.143C47.8072 44.0556 44.5597 45.3876 43.9214 50.2812C43.8761 50.6299 42.9883 50.4577 41.1049 50.3228C41.5246 46.2867 44.1236 42.8909 48.0971 41.7309C49.5008 41.3205 50.4638 41.595 51.4984 41.2096C51.9215 40.3434 52.0924 36.2289 51.6206 35.4427C50.4883 35.0721 47.9181 35.4593 46.3156 35.9367C42.2605 37.1434 38.7192 40.2819 36.838 44.2705C35.3595 47.4038 35.6319 48.9266 35.172 50.0183C35.1155 50.0264 34.991 49.9917 35.0021 50.0381C35.0122 50.0828 34.8718 50.053 34.834 50.0546L33.6536 50.0296C33.0345 49.9923 32.7471 50.0114 32.1674 49.8493C31.9383 48.2971 32.9559 44.962 33.7837 43.0587C36.4581 36.9074 42.0681 32.8065 48.4915 32.0489C49.577 31.9211 50.9346 32.0431 51.8144 31.7745C52.3309 30.9445 52.4868 26.8855 52.0334 26.0523C50.633 25.402 45.8759 26.2816 43.5108 27.0097C37.0158 29.0098 31.3711 34.4172 28.4708 40.861C26.8379 44.4881 26.9014 46.2803 26.2653 49.6217L23.2031 49.539C22.8911 47.2738 24.3601 42.0634 25.5571 39.3741C30.0949 29.1832 39.7602 22.5295 50.1795 22.4782C51.151 22.4736 52.0688 22.8979 52.4677 21.862L52.4683 21.8628Z" fill="#92F8C9"/>
<path d="M60.9265 47.5059C60.5638 47.5059 60.2652 47.3885 60.0305 47.1539C59.7958 46.9192 59.6785 46.6205 59.6785 46.2579V23.7619C59.6785 23.3992 59.7958 23.1005 60.0305 22.8659C60.2652 22.6312 60.5638 22.5139 60.9265 22.5139C61.2892 22.5139 61.5878 22.6312 61.8225 22.8659C62.0572 23.1005 62.1745 23.3992 62.1745 23.7619V33.7459H77.7905V23.7619C77.7905 23.3992 77.9078 23.1005 78.1425 22.8659C78.3772 22.6312 78.6758 22.5139 79.0385 22.5139C79.4012 22.5139 79.6999 22.6312 79.9345 22.8659C80.1692 23.1005 80.2865 23.3992 80.2865 23.7619V46.2579C80.2865 46.6205 80.1692 46.9192 79.9345 47.1539C79.6999 47.3885 79.4012 47.5059 79.0385 47.5059C78.6758 47.5059 78.3772 47.3885 78.1425 47.1539C77.9078 46.9192 77.7905 46.6205 77.7905 46.2579V35.9859H62.1745V46.2579C62.1745 46.6205 62.0572 46.9192 61.8225 47.1539C61.5878 47.3885 61.2892 47.5059 60.9265 47.5059ZM94.2945 47.6659C92.5665 47.6659 91.0305 47.2925 89.6865 46.5459C88.3638 45.7779 87.3185 44.7219 86.5505 43.3779C85.8038 42.0339 85.4305 40.4979 85.4305 38.7699C85.4305 37.0205 85.7825 35.4845 86.4865 34.1619C87.2118 32.8179 88.2038 31.7619 89.4625 30.9939C90.7212 30.2259 92.1718 29.8419 93.8145 29.8419C95.4358 29.8419 96.8438 30.2152 98.0385 30.9619C99.2545 31.6872 100.193 32.7005 100.855 34.0019C101.516 35.3032 101.847 36.7859 101.847 38.4499C101.847 38.7912 101.74 39.0685 101.527 39.2819C101.313 39.4739 101.036 39.5699 100.695 39.5699H87.0945V37.5219H100.951L99.5745 38.5139C99.5958 37.2765 99.3718 36.1672 98.9025 35.1859C98.4332 34.2045 97.7612 33.4365 96.8865 32.8819C96.0332 32.3272 95.0092 32.0499 93.8145 32.0499C92.5985 32.0499 91.5318 32.3379 90.6145 32.9139C89.6972 33.4899 88.9825 34.2899 88.4705 35.3139C87.9798 36.3165 87.7345 37.4685 87.7345 38.7699C87.7345 40.0712 88.0118 41.2232 88.5665 42.2259C89.1425 43.2285 89.9212 44.0179 90.9025 44.5939C91.8838 45.1699 93.0145 45.4579 94.2945 45.4579C95.0625 45.4579 95.8305 45.3299 96.5985 45.0739C97.3878 44.7965 98.0172 44.4552 98.4865 44.0499C98.7212 43.8579 98.9878 43.7619 99.2865 43.7619C99.5852 43.7405 99.8412 43.8152 100.055 43.9859C100.332 44.2419 100.471 44.5192 100.471 44.8179C100.492 45.1165 100.375 45.3725 100.119 45.5859C99.4145 46.1832 98.5185 46.6845 97.4305 47.0899C96.3425 47.4739 95.2972 47.6659 94.2945 47.6659ZM113.102 47.6659C111.459 47.6659 109.987 47.2819 108.686 46.5139C107.384 45.7245 106.35 44.6579 105.582 43.3139C104.835 41.9699 104.462 40.4552 104.462 38.7699C104.462 37.0632 104.846 35.5379 105.614 34.1939C106.403 32.8499 107.47 31.7939 108.814 31.0259C110.158 30.2365 111.672 29.8419 113.358 29.8419C115.043 29.8419 116.547 30.2365 117.87 31.0259C119.214 31.7939 120.27 32.8499 121.038 34.1939C121.827 35.5379 122.232 37.0632 122.254 38.7699L121.262 39.5379C121.262 41.0739 120.899 42.4605 120.174 43.6979C119.47 44.9139 118.499 45.8845 117.262 46.6099C116.046 47.3139 114.659 47.6659 113.102 47.6659ZM113.358 45.4259C114.595 45.4259 115.694 45.1379 116.654 44.5619C117.635 43.9859 118.403 43.1965 118.958 42.1939C119.534 41.1699 119.822 40.0285 119.822 38.7699C119.822 37.4899 119.534 36.3485 118.958 35.3459C118.403 34.3432 117.635 33.5539 116.654 32.9779C115.694 32.3805 114.595 32.0819 113.358 32.0819C112.142 32.0819 111.043 32.3805 110.062 32.9779C109.08 33.5539 108.302 34.3432 107.726 35.3459C107.15 36.3485 106.862 37.4899 106.862 38.7699C106.862 40.0285 107.15 41.1699 107.726 42.1939C108.302 43.1965 109.08 43.9859 110.062 44.5619C111.043 45.1379 112.142 45.4259 113.358 45.4259ZM121.006 47.5059C120.643 47.5059 120.344 47.3992 120.11 47.1859C119.875 46.9512 119.758 46.6525 119.758 46.2899V40.8179L120.366 38.2899L122.254 38.7699V46.2899C122.254 46.6525 122.136 46.9512 121.902 47.1859C121.667 47.3992 121.368 47.5059 121.006 47.5059ZM130.822 47.5059C129.969 47.5059 129.201 47.2712 128.518 46.8019C127.857 46.3325 127.334 45.6819 126.95 44.8499C126.587 44.0179 126.406 43.0579 126.406 41.9699V23.7299C126.406 23.3672 126.513 23.0792 126.726 22.8659C126.961 22.6312 127.259 22.5139 127.622 22.5139C127.985 22.5139 128.273 22.6312 128.486 22.8659C128.721 23.0792 128.838 23.3672 128.838 23.7299V41.9699C128.838 42.8872 129.019 43.6339 129.382 44.2099C129.766 44.7859 130.246 45.0739 130.822 45.0739H131.622C131.942 45.0739 132.198 45.1912 132.39 45.4259C132.582 45.6392 132.678 45.9272 132.678 46.2899C132.678 46.6525 132.539 46.9512 132.262 47.1859C132.006 47.3992 131.665 47.5059 131.238 47.5059H130.822ZM142.821 47.6659C141.178 47.6659 139.706 47.2819 138.405 46.5139C137.103 45.7245 136.069 44.6579 135.301 43.3139C134.554 41.9699 134.181 40.4552 134.181 38.7699C134.181 37.0632 134.565 35.5379 135.333 34.1939C136.122 32.8499 137.189 31.7939 138.533 31.0259C139.877 30.2365 141.391 29.8419 143.077 29.8419C144.762 29.8419 146.266 30.2365 147.589 31.0259C148.933 31.7939 149.989 32.8499 150.757 34.1939C151.546 35.5379 151.951 37.0632 151.973 38.7699L150.981 39.5379C150.981 41.0739 150.618 42.4605 149.893 43.6979C149.189 44.9139 148.218 45.8845 146.981 46.6099C145.765 47.3139 144.378 47.6659 142.821 47.6659ZM143.077 45.4259C144.314 45.4259 145.413 45.1379 146.373 44.5619C147.354 43.9859 148.122 43.1965 148.677 42.1939C149.253 41.1699 149.541 40.0285 149.541 38.7699C149.541 37.4899 149.253 36.3485 148.677 35.3459C148.122 34.3432 147.354 33.5539 146.373 32.9779C145.413 32.3805 144.314 32.0819 143.077 32.0819C141.861 32.0819 140.762 32.3805 139.781 32.9779C138.799 33.5539 138.021 34.3432 137.445 35.3459C136.869 36.3485 136.581 37.4899 136.581 38.7699C136.581 40.0285 136.869 41.1699 137.445 42.1939C138.021 43.1965 138.799 43.9859 139.781 44.5619C140.762 45.1379 141.861 45.4259 143.077 45.4259ZM150.725 47.5059C150.362 47.5059 150.063 47.3992 149.829 47.1859C149.594 46.9512 149.477 46.6525 149.477 46.2899V40.8179L150.085 38.2899L151.973 38.7699V46.2899C151.973 46.6525 151.855 46.9512 151.621 47.1859C151.386 47.3992 151.087 47.5059 150.725 47.5059Z" fill="#3E5EA9"/>
</svg>
