<svg width="45" height="35" viewBox="0 0 15 18" fill="none" xmlns="http://www.w3.org/2000/svg">
<path d="M0.794922 6.35791H2.18945V0.428223H5.96289L7.88477 6.35791H10.0176V0.428223H12.6777V6.35791H14.0488V8.12744H12.6777V9.86182H14.0488V11.6313H12.6777V17.561H8.89258L6.9707 11.6313H4.86133V17.561H2.18945V11.6313H0.794922V9.86182H2.18945V8.12744H0.794922V6.35791ZM4.86133 9.86182H6.39648L5.8457 8.12744H4.86133V9.86182ZM9.0332 9.86182H10.0176V8.12744H8.45898L9.0332 9.86182ZM4.63867 4.36572L4.7793 6.35791H5.25977L4.63867 4.36572ZM10.2285 13.5298C10.2051 13.3267 10.1582 12.6938 10.0879 11.6313H9.60742L10.2285 13.5298Z" fill="green"/>
</svg>
