<svg width="56" height="56" viewBox="0 0 56 56" fill="none" xmlns="http://www.w3.org/2000/svg">
<circle cx="28" cy="27.9998" r="28" fill="#ECF6F3"/>
<path d="M32 26.9998C33.66 26.9998 34.99 25.6598 34.99 23.9998C34.99 22.3398 33.66 20.9998 32 20.9998C30.34 20.9998 29 22.3398 29 23.9998C29 25.6598 30.34 26.9998 32 26.9998ZM24 26.9998C25.66 26.9998 26.99 25.6598 26.99 23.9998C26.99 22.3398 25.66 20.9998 24 20.9998C22.34 20.9998 21 22.3398 21 23.9998C21 25.6598 22.34 26.9998 24 26.9998ZM24 28.9998C21.67 28.9998 17 30.1698 17 32.4998V34.9998H31V32.4998C31 30.1698 26.33 28.9998 24 28.9998ZM32 28.9998C31.71 28.9998 31.38 29.0198 31.03 29.0498C32.19 29.8898 33 31.0198 33 32.4998V34.9998H39V32.4998C39 30.1698 34.33 28.9998 32 28.9998Z" fill="#3EA584"/>
</svg>
