<svg width="6" height="10" viewBox="0 0 6 20" fill="none" xmlns="http://www.w3.org/2000/svg">
<path d="M2.99961 5.20002C2.36309 5.20002 1.75264 4.94717 1.30255 4.49708C0.852466 4.04699 0.599609 3.43654 0.599609 2.80002C0.599609 2.1635 0.852466 1.55306 1.30255 1.10297C1.75264 0.652881 2.36309 0.400024 2.99961 0.400024C3.63613 0.400024 4.24658 0.652881 4.69667 1.10297C5.14675 1.55306 5.39961 2.1635 5.39961 2.80002C5.39961 3.43654 5.14675 4.04699 4.69667 4.49708C4.24658 4.94717 3.63613 5.20002 2.99961 5.20002ZM2.99961 12.4C2.36309 12.4 1.75264 12.1472 1.30255 11.6971C0.852466 11.247 0.599609 10.6365 0.599609 10C0.599609 9.3635 0.852466 8.75306 1.30255 8.30297C1.75264 7.85288 2.36309 7.60002 2.99961 7.60002C3.63613 7.60002 4.24658 7.85288 4.69667 8.30297C5.14675 8.75306 5.39961 9.3635 5.39961 10C5.39961 10.6365 5.14675 11.247 4.69667 11.6971C4.24658 12.1472 3.63613 12.4 2.99961 12.4ZM2.99961 19.6C2.36309 19.6 1.75264 19.3472 1.30255 18.8971C0.852466 18.447 0.599609 17.8365 0.599609 17.2C0.599609 16.5635 0.852466 15.9531 1.30255 15.503C1.75264 15.0529 2.36309 14.8 2.99961 14.8C3.63613 14.8 4.24658 15.0529 4.69667 15.503C5.14675 15.9531 5.39961 16.5635 5.39961 17.2C5.39961 17.8365 5.14675 18.447 4.69667 18.8971C4.24658 19.3472 3.63613 19.6 2.99961 19.6Z" fill="#757886"/>
</svg>
