<svg width="54" height="54" viewBox="0 0 54 54" fill="none" xmlns="http://www.w3.org/2000/svg">
<rect width="54" height="54" rx="27" fill="#F17F58"/>
<path d="M33.4517 22.065C33.37 22.0533 33.2883 22.0533 33.2067 22.065C31.3983 22.0067 29.9633 20.525 29.9633 18.705C29.9633 16.85 31.4683 15.3333 33.335 15.3333C35.19 15.3333 36.7066 16.8383 36.7066 18.705C36.695 20.525 35.26 22.0067 33.4517 22.065Z" fill="white"/>
<path d="M37.255 30.15C35.9483 31.025 34.1166 31.3517 32.425 31.13C32.8683 30.1733 33.1016 29.1117 33.1133 27.9917C33.1133 26.825 32.8566 25.7167 32.3666 24.7483C34.0933 24.515 35.925 24.8417 37.2433 25.7167C39.0866 26.93 39.0866 28.925 37.255 30.15Z" fill="white"/>
<path d="M20.5134 22.065C20.595 22.0533 20.6767 22.0533 20.7584 22.065C22.5667 22.0067 24.0017 20.525 24.0017 18.705C24.0017 16.8383 22.4967 15.3333 20.63 15.3333C18.775 15.3333 17.27 16.8383 17.27 18.705C17.27 20.525 18.705 22.0067 20.5134 22.065Z" fill="white"/>
<path d="M20.6417 27.9917C20.6417 29.1233 20.8867 30.1967 21.33 31.165C19.685 31.34 17.97 30.99 16.71 30.1617C14.8667 28.9367 14.8667 26.9417 16.71 25.7167C17.9583 24.8767 19.72 24.5383 21.3767 24.725C20.8983 25.705 20.6417 26.8133 20.6417 27.9917Z" fill="white"/>
<path d="M27.14 31.515C27.0466 31.5033 26.9416 31.5033 26.8366 31.515C24.69 31.445 22.975 29.6833 22.975 27.5133C22.9866 25.2967 24.7716 23.5 27 23.5C29.2166 23.5 31.0133 25.2967 31.0133 27.5133C31.0016 29.6833 29.2983 31.445 27.14 31.515Z" fill="white"/>
<path d="M23.3483 33.93C21.5867 35.1083 21.5867 37.045 23.3483 38.2117C25.355 39.5533 28.645 39.5533 30.6517 38.2117C32.4133 37.0333 32.4133 35.0967 30.6517 33.93C28.6567 32.5883 25.3667 32.5883 23.3483 33.93Z" fill="white"/>
</svg>
