<svg width="54" height="54" viewBox="0 0 54 54" fill="none" xmlns="http://www.w3.org/2000/svg">
<rect width="54" height="54" rx="27" fill="#72CD99"/>
<path d="M27 15.3333C23.9434 15.3333 21.4584 17.8183 21.4584 20.875C21.4584 23.8733 23.8034 26.3 26.86 26.405C26.9534 26.3933 27.0467 26.3933 27.1167 26.405C27.14 26.405 27.1517 26.405 27.175 26.405C27.1867 26.405 27.1867 26.405 27.1984 26.405C30.185 26.3 32.53 23.8733 32.5417 20.875C32.5417 17.8183 30.0567 15.3333 27 15.3333Z" fill="white"/>
<path d="M32.9266 29.5083C29.6716 27.3383 24.3633 27.3383 21.085 29.5083C19.6033 30.5 18.7866 31.8417 18.7866 33.2767C18.7866 34.7117 19.6033 36.0417 21.0733 37.0217C22.7066 38.1183 24.8533 38.6667 27 38.6667C29.1466 38.6667 31.2933 38.1183 32.9266 37.0217C34.3966 36.03 35.2133 34.7 35.2133 33.2533C35.2016 31.8183 34.3966 30.4883 32.9266 29.5083ZM29.3333 34.1517H27.875V35.61C27.875 36.0883 27.4783 36.485 27 36.485C26.5216 36.485 26.125 36.0883 26.125 35.61V34.1517H24.6666C24.1883 34.1517 23.7916 33.755 23.7916 33.2767C23.7916 32.7983 24.1883 32.4017 24.6666 32.4017H26.125V30.9433C26.125 30.465 26.5216 30.0683 27 30.0683C27.4783 30.0683 27.875 30.465 27.875 30.9433V32.4017H29.3333C29.8116 32.4017 30.2083 32.7983 30.2083 33.2767C30.2083 33.755 29.8116 34.1517 29.3333 34.1517Z" fill="white"/>
</svg>
